<svg width="485" height="496" viewBox="0 0 485 496" fill="none" xmlns="http://www.w3.org/2000/svg">
<g opacity="0.24">
<path fill-rule="evenodd" clip-rule="evenodd" d="M594.396 -413.467C644.016 -401.462 689.593 -388.495 738.089 -372.55C814.399 -347.461 913.453 -359.251 959.465 -293.439C1005.87 -227.066 990.164 -131.245 959.077 -56.4713C929.239 15.298 864.388 65.7935 795.29 101.448C733.607 133.277 663.812 130.98 594.396 131.705C524.14 132.438 451.636 140.155 390.43 105.675C324.963 68.795 266.805 10.221 249.152 -62.7831C231.975 -133.82 274.928 -201.818 299.426 -270.676C323.112 -337.255 325.74 -426.11 389.372 -456.914C453.823 -488.113 524.793 -430.306 594.396 -413.467Z" fill="#805AED"/>
<g filter="url(#filter0_f)">
<path fill-rule="evenodd" clip-rule="evenodd" d="M549.193 -250.412C598.813 -238.407 644.389 -225.44 692.886 -209.495C769.196 -184.406 868.249 -196.195 914.262 -130.384C960.667 -64.0106 944.961 31.8106 913.874 106.584C884.036 178.353 819.185 228.849 750.086 264.503C688.403 296.332 618.608 294.035 549.193 294.76C478.936 295.494 406.433 303.21 345.226 268.73C279.76 231.85 221.602 173.276 203.949 100.272C186.772 29.2356 229.725 -38.7631 254.222 -107.621C277.909 -174.2 280.537 -263.055 344.169 -293.859C408.619 -325.058 479.59 -267.25 549.193 -250.412Z" fill="#805AED"/>
</g>
</g>
<defs>
<filter id="filter0_f" x="0" y="-502.945" width="1143.43" height="998.945" filterUnits="userSpaceOnUse" color-interpolation-filters="sRGB">
<feFlood flood-opacity="0" result="BackgroundImageFix"/>
<feBlend mode="normal" in="SourceGraphic" in2="BackgroundImageFix" result="shape"/>
<feGaussianBlur stdDeviation="100" result="effect1_foregroundBlur"/>
</filter>
</defs>
</svg>
